<svg xmlns="http://www.w3.org/2000/svg" width="51" height="51" viewBox="0 0 51 51">
  <g id="Group_101" data-name="Group 101" transform="translate(0.005)">
    <circle id="Ellipse_5" data-name="Ellipse 5" cx="25.5" cy="25.5" r="25.5" transform="translate(-0.005)" fill="#fff"/>
    <g id="facebook_2_" data-name="facebook (2)" transform="translate(20.467 15.837)">
      <g id="Group_99" data-name="Group 99">
        <path id="Path_17" data-name="Path 17" d="M154.944,0h-2.083a4.484,4.484,0,0,0-3.434,1.135,4.779,4.779,0,0,0-1.044,3.344v1.4a.672.672,0,0,1-.672.672h-.72a.672.672,0,0,0-.672.672v2.1a.672.672,0,0,0,.672.672h.72a.672.672,0,0,1,.672.672v8.657a.672.672,0,0,0,.672.672h2.8a.672.672,0,0,0,.672-.672V10.672a.672.672,0,0,1,.672-.672H154.6a.763.763,0,0,0,.742-.668l.223-2.111a.591.591,0,0,0-.6-.668h-1.776a.672.672,0,0,1-.672-.672V4.83a3.771,3.771,0,0,1,.036-.6,1.169,1.169,0,0,1,.164-.419.669.669,0,0,1,.413-.285,2.939,2.939,0,0,1,.758-.079h1.052a.671.671,0,0,0,.672-.672V.672A.671.671,0,0,0,154.944,0Z" transform="translate(-146.32)" fill="#b71c1c"/>
      </g>
    </g>
  </g>
</svg>
