<svg xmlns="http://www.w3.org/2000/svg" width="51" height="51" viewBox="0 0 51 51">
  <g id="Group_103" data-name="Group 103" transform="translate(-0.37)">
    <circle id="Ellipse_7" data-name="Ellipse 7" cx="25.5" cy="25.5" r="25.5" transform="translate(0.37)" fill="#fff"/>
    <g id="instagram" transform="translate(15.238 15.696)">
      <path id="Path_19" data-name="Path 19" d="M13.661,0H5.07A5.076,5.076,0,0,0,0,5.071v8.591A5.076,5.076,0,0,0,5.07,18.732h8.591a5.076,5.076,0,0,0,5.071-5.071V5.071A5.076,5.076,0,0,0,13.661,0Zm-4.3,14.488a5.122,5.122,0,1,1,5.122-5.122A5.128,5.128,0,0,1,9.365,14.488ZM14.61,5.452a1.514,1.514,0,1,1,1.514-1.513A1.515,1.515,0,0,1,14.61,5.452Zm0,0" transform="translate(0.001 0)" fill="#b71c1c"/>
      <path id="Path_20" data-name="Path 20" d="M150.044,146.02a4.024,4.024,0,1,0,4.024,4.024A4.028,4.028,0,0,0,150.044,146.02Zm0,0" transform="translate(-140.678 -140.678)" fill="#b71c1c"/>
      <path id="Path_21" data-name="Path 21" d="M388.408,96.3a.415.415,0,1,0,.415.415A.416.416,0,0,0,388.408,96.3Zm0,0" transform="translate(-373.797 -92.777)" fill="#b71c1c"/>
    </g>
  </g>
</svg>
