<svg xmlns="http://www.w3.org/2000/svg" width="51" height="51" viewBox="0 0 51 51">
  <g id="Group_104" data-name="Group 104" transform="translate(-0.185)">
    <circle id="Ellipse_8" data-name="Ellipse 8" cx="25.5" cy="25.5" r="25.5" transform="translate(0.185)" fill="#fff"/>
    <g id="linkedin" transform="translate(15.542 16)">
      <path id="Path_22" data-name="Path 22" d="M20.3,20.084h0v-6.7c0-3.28-.706-5.806-4.54-5.806a3.98,3.98,0,0,0-3.585,1.97h-.053V7.88H8.489v12.2h3.785V14.041c0-1.591.3-3.129,2.272-3.129,1.941,0,1.97,1.816,1.97,3.232v5.941Z" transform="translate(-2.024 -1.806)" fill="#b71c1c"/>
      <path id="Path_23" data-name="Path 23" d="M.4,7.977h3.79v12.2H.4Z" transform="translate(-0.094 -1.902)" fill="#b71c1c"/>
      <path id="Path_24" data-name="Path 24" d="M2.195,0A2.205,2.205,0,1,0,4.39,2.195,2.2,2.2,0,0,0,2.195,0Z" fill="#b71c1c"/>
    </g>
  </g>
</svg>
