<svg xmlns="http://www.w3.org/2000/svg" width="495.995" height="76.48" viewBox="0 0 495.995 76.48">
  <g id="Group_205" data-name="Group 205" transform="translate(-3284.01 553)">
    <g id="Group_182" data-name="Group 182" transform="translate(3284.01 -553)">
      <g id="Group_181" data-name="Group 181" transform="translate(0 0)">
        <path id="Path_74" data-name="Path 74" d="M377.788,101.988A6.99,6.99,0,0,1,378.02,103c.013.085.025.172.035.258a7.7,7.7,0,0,1,.019,1.588c-.013.164-.034.328-.057.494-.006.044-.012.088-.02.13-.009.063-.021.127-.033.191-.016.092-.034.183-.054.276a10.591,10.591,0,0,1-.4,1.4c-.033.094-.069.189-.105.284a14.328,14.328,0,0,1-.685,1.5c-.039.076-.079.151-.121.227q-.247.457-.533.916c-.054.087-.108.175-.166.262s-.128.2-.194.3-.133.2-.2.3c-.146.211-.3.422-.455.634-.065.088-.132.177-.2.265s-.154.2-.234.3q-.262.336-.546.672c-.064.079-.129.155-.2.233-.087.1-.175.2-.265.306l-.256.291c-.017.017-.034.037-.051.055-.079.089-.159.176-.241.264-.067.073-.135.146-.2.218s-.134.144-.2.214c-.162.171-.327.342-.5.513-.092.092-.186.187-.281.28s-.208.205-.314.307c-.234.228-.473.455-.719.684l-.263.241c-.106.1-.211.192-.318.288q-.3.266-.6.53c-.088.078-.18.156-.271.234-.151.13-.3.26-.461.391q-.15.126-.3.252c-.142.118-.285.236-.431.353-.127.1-.254.2-.383.308s-.229.183-.347.274q-1.008.791-2.1,1.58-.2.149-.412.3c-.139.1-.278.2-.418.3q-.685.482-1.4.96l-.377.251q-.752.5-1.536,1l-.359.226q-.512.32-1.036.641l-.458.277c-.14.085-.281.169-.423.253q-1.3.775-2.675,1.539l-.5.277q-.469.258-.946.513c-.141.078-.283.153-.426.229l-.341.181-.509.266c-.186.1-.372.194-.56.291l-.564.289-.341.173c-.168.086-.337.171-.507.256l-.335.167-.542.266-.583.284-.509.247q-.525.25-1.054.5-.259.123-.52.242-.791.367-1.6.728c-.177.081-.357.16-.537.24-.2.092-.413.183-.619.273l-.625.272-.629.271c-.2.084-.395.169-.593.252q-1.607.679-3.266,1.334-.323.129-.65.255a.261.261,0,0,1-.031.012q-.317.125-.638.247c-.164.063-.329.128-.494.19l-.406.153-.433.163q-1.006.378-2.029.746l-.684.245q-.956.341-1.929.672l-.581.2c-.272.093-.548.184-.824.276q-.348.117-.7.231-1.126.367-2.268.724c25.513-7.991,43.5-22.893,40.253-33.439S342.26,92,316.665,99.719q1.144-.348,2.283-.676.355-.1.709-.2c.279-.079.559-.159.836-.235l.591-.164q.991-.273,1.973-.528l.7-.182q1.052-.271,2.1-.523l.45-.108.422-.1.516-.12q.333-.079.666-.154a.227.227,0,0,1,.033-.008c.227-.053.454-.1.681-.154q1.741-.39,3.451-.731l.632-.125.672-.13.67-.126c.221-.042.445-.083.665-.122.194-.034.387-.07.579-.1q.872-.154,1.731-.3.283-.048.566-.092c.211-.034.422-.067.632-.1l.52-.08.56-.082c.214-.032.429-.063.642-.092l.6-.084.371-.05c.189-.025.376-.05.563-.074l.379-.049.629-.078.627-.074.571-.065.384-.042c.161-.017.321-.034.481-.049q.539-.058,1.071-.107c.191-.018.381-.036.569-.052q1.566-.14,3.077-.23l.492-.028.535-.028q.613-.029,1.218-.052l.423-.015q.929-.028,1.831-.039l.453,0q.861,0,1.7.009l.512.01q.255,0,.507.013,1.346.04,2.625.127l.441.032c.165.012.327.025.49.039l.555.049c.132.012.263.024.393.038q.3.03.6.064c.119.013.238.026.356.041q.3.035.584.073c.112.014.224.029.335.045.254.034.5.072.751.11.124.02.249.039.372.06.171.027.342.056.509.085.121.02.242.042.362.066.249.045.492.092.734.142.1.02.2.04.3.063.137.029.274.059.409.089q.365.082.717.17c.1.025.2.05.3.077.283.073.562.148.835.228l.313.091.088.027.216.067c.166.052.328.1.489.159.09.03.181.061.271.092q.22.075.433.155c.078.028.155.057.232.087q.906.344,1.712.741c.1.047.193.1.288.146.2.1.4.208.587.317l.209.12c.207.123.407.247.6.375.087.056.171.114.254.172s.167.116.247.175.163.12.24.18.15.116.223.176.156.129.231.193.135.117.2.177.151.137.223.207.135.131.2.2c.045.046.091.092.135.139s.07.074.1.112c.051.056.1.113.151.17.115.132.225.267.328.4.045.058.088.117.13.176.114.157.22.317.321.48.047.075.091.151.134.226s.085.152.124.229.079.155.116.233A7.028,7.028,0,0,1,377.788,101.988Z" transform="translate(-261.286 -76.412)" fill="#353535"/>
        <path id="Path_75" data-name="Path 75" d="M241.456,157.643c-30.072,8.877-56.669,7.772-59.872-2.645-2.843-9.248,13.711-22.8,38.378-32.4l-.053.224c-19.48,8.338-32.041,20.44-29.288,29.4C193.812,162.6,216.36,164.918,241.456,157.643Z" transform="translate(-181.267 -93.688)" fill="#353535"/>
        <g id="Group_178" data-name="Group 178" transform="translate(11.67 39.975)">
          <path id="Path_76" data-name="Path 76" d="M240.3,175.354c-.029-.079-.072-.153-.1-.232-1.23-2.98-2.441-5.972-3.7-8.942-1.991-4.7-3.606-9.552-5.7-14.216-.091-.2-.114-.477-.349-.548-2.219-.675-4.435-1.788-6.71-1.762-3.508.045-7.02.493-10.548.431a10.469,10.469,0,0,1-2.51-.251c-.744-.2-.982-.007-.848.77.186,1.054.395,2.1.584,3.156.711,3.988,1.338,8,2.408,11.912a1.534,1.534,0,0,0,.339.757c3.349,3.189,6.279,6.788,9.389,9.575,1.465,1.364,2.571,2.454,3.805,3.4a1.355,1.355,0,0,0,.9.4c.757-.033,1.524-.013,2.278-.1a56.8,56.8,0,0,0,9.578-1.975C240.834,177.224,240.951,177.035,240.3,175.354Zm-16.056-24.506c0-.02.023-.039.072-.121,1.707.47,3.433.946,5.156,1.423.313.088.382.365.5.623,1.873,3.965,3.175,8.159,4.9,12.182,1.325,3.09,2.539,6.227,3.834,9.428a1.6,1.6,0,0,1-.871-.617q-6.168-6.09-12.323-12.2a1.043,1.043,0,0,1-.4-.617A62.777,62.777,0,0,1,224.245,150.849Zm-.3,9.235c-3.267-2.535-6.436-4.993-9.6-7.453,2.989,1.047,5.861,2.239,8.785,3.289.166.062.29.134.313.333C223.6,157.493,223.762,158.733,223.942,160.084Zm-4.807-9.069c1.152-.075,2.3-.189,3.453-.3.414-.043.6.039.614.519.022,1.184.108,2.362.176,3.668-3.244-1.165-6.23-2.428-9.222-3.724C215.829,151.195,217.483,151.119,219.135,151.015Zm-4.879,13.938c-.382.111-.528.1-.633-.33-1.044-4.236-1.739-8.537-2.454-12.832-.01-.043.049-.091.117-.209,3.992,3.1,7.976,6.188,12.062,9.36-2.288,1.028-4.442,2.017-6.615,2.963A21.727,21.727,0,0,1,214.256,164.953Zm9.131-2.888a1.1,1.1,0,0,1,1.446.287c3.658,3.629,7.343,7.228,11.021,10.838a.553.553,0,0,1,.189.431c-7.069-2.539-14.141-5.075-21.327-7.653C217.686,164.637,220.545,163.371,223.387,162.065Zm4.4,16.68a1.414,1.414,0,0,1-1.051-.385,103.259,103.259,0,0,1-9.928-9.748c-.284-.31-.584-.6-.878-.9.029-.056.059-.108.088-.163,2.046.747,4.07,1.553,6.138,2.226,5.254,1.71,10.345,3.874,15.616,5.531.666.209.96.806,1.521,1.27A47.406,47.406,0,0,1,227.79,178.745Z" transform="translate(-209.799 -149.654)" fill="#fff"/>
          <path id="Path_77" data-name="Path 77" d="M248.16,202.422a47.4,47.4,0,0,1-11.507,2.173,1.413,1.413,0,0,1-1.051-.385,103.256,103.256,0,0,1-9.928-9.748c-.284-.31-.584-.6-.878-.9.029-.056.059-.108.088-.163,2.046.747,4.07,1.553,6.138,2.226,5.254,1.71,10.345,3.874,15.616,5.531C247.305,201.361,247.6,201.958,248.16,202.422Z" transform="translate(-218.662 -175.504)" fill="#b71c1c"/>
          <path id="Path_78" data-name="Path 78" d="M243.148,191.333c-7.069-2.539-14.141-5.075-21.327-7.653,2.97-1.331,5.829-2.6,8.671-3.9a1.1,1.1,0,0,1,1.446.287c3.658,3.629,7.343,7.228,11.021,10.838A.553.553,0,0,1,243.148,191.333Z" transform="translate(-216.904 -167.366)" fill="#b71c1c"/>
          <path id="Path_79" data-name="Path 79" d="M225.326,163.73c-2.288,1.028-4.442,2.017-6.615,2.963a21.733,21.733,0,0,1-2.477,1.047c-.382.111-.528.1-.633-.33-1.044-4.236-1.739-8.537-2.454-12.832-.01-.043.049-.091.117-.209C217.255,157.467,221.24,160.558,225.326,163.73Z" transform="translate(-211.777 -152.441)" fill="#771010"/>
          <path id="Path_80" data-name="Path 80" d="M229.671,156.413c-3.244-1.165-6.23-2.428-9.222-3.724,1.674.02,3.329-.056,4.98-.16,1.152-.075,2.3-.189,3.453-.3.414-.043.6.039.613.519C229.518,153.929,229.6,155.107,229.671,156.413Z" transform="translate(-216.093 -151.168)" fill="#b71c1c"/>
          <path id="Path_81" data-name="Path 81" d="M230.505,164.385c-3.267-2.535-6.436-4.993-9.6-7.453,2.989,1.047,5.861,2.239,8.785,3.289.166.062.29.134.313.333C230.162,161.794,230.326,163.034,230.505,164.385Z" transform="translate(-216.362 -153.955)" fill="#b71c1c"/>
          <path id="Path_82" data-name="Path 82" d="M259.562,175.937a1.6,1.6,0,0,1-.871-.617q-6.168-6.09-12.323-12.2a1.043,1.043,0,0,1-.4-.617,62.782,62.782,0,0,1-.871-10.1c0-.02.023-.039.072-.121,1.707.47,3.433.946,5.156,1.423.313.088.382.365.5.623,1.873,3.965,3.175,8.159,4.9,12.182C257.052,169.6,258.266,172.735,259.562,175.937Z" transform="translate(-230.651 -151.206)" fill="#771010"/>
        </g>
        <g id="Group_179" data-name="Group 179" transform="translate(65.825 14.286)">
          <path id="Path_83" data-name="Path 83" d="M378.212,86.9a24.386,24.386,0,0,0-4.073,1.8c-6.09,2.676-12.117,5.489-18.053,8.5a14.061,14.061,0,0,0-3.443,2.239,1.68,1.68,0,0,0-.47.878c-2.83,7.839-5.773,15.639-7.9,23.716-.532,2.033-1.26,4.017-1.87,6.031-.418,1.384-.248,1.681,1.133,1.863a83.279,83.279,0,0,1,10.087,1.955,1.344,1.344,0,0,0,.663.049c1.534-.353,3.061-.725,4.6-1.035a3.281,3.281,0,0,0,1.753-.937c1.286-1.305,2.6-2.581,3.854-3.916,3.283-3.492,6.37-7.183,9.941-10.375a6.784,6.784,0,0,0,2.343-5.14c.5-8.315,1.2-16.614,2.4-24.868C379.279,86.976,378.927,86.728,378.212,86.9Zm-10.639,24.5c-2.885-1.968-5.5-4.278-8.358-6.4,6.184-5.085,11.527-11.067,18.021-15.884-2.917,7.434-6.194,14.578-8.782,22C368.245,111.71,368.1,111.759,367.573,111.4Zm.209,1.707c-.274.91-.506,1.837-.787,2.882a84.132,84.132,0,0,1-7.7-5.235c-1.093-.8-2.115-1.69-3.208-2.487-.456-.333-.349-.525,0-.8.617-.483,1.241-.963,1.838-1.472a.519.519,0,0,1,.773-.039c1.335.9,2.555,1.949,3.812,2.947a51.944,51.944,0,0,0,5.045,3.672C367.782,112.709,367.867,112.816,367.782,113.1ZM357.456,97.645q5.5-2.634,11.027-5.235c1.854-.872,3.73-1.7,5.6-2.546a.988.988,0,0,1,.663-.183c-1.308,1.119-2.617,2.183-3.861,3.316q-3.593,3.265-7.124,6.6c-1.573,1.492-3.231,2.885-4.863,4.311-.359.313-.5.166-.62-.229-.519-1.723-1.025-3.45-1.416-5.212C356.722,97.854,357.143,97.795,357.456,97.645Zm-3.446,1.991c.581-.333,1.133-.718,1.788-1.139a44.016,44.016,0,0,0,1.717,6.089.437.437,0,0,1-.182.568c-.679.539-1.358,1.077-2.021,1.632-.378.317-.5.17-.581-.241q-.577-2.977-1.175-5.949A.8.8,0,0,1,354.01,99.635Zm-1.266,2.4c.4,1.981.679,3.848,1.191,5.662a.877.877,0,0,1-.147.708c-2.888,5.261-5.6,10.613-8.269,15.984a1.016,1.016,0,0,1-.166.2C345.463,122.49,351.044,105.408,352.744,102.031ZM350.2,117.414c1.446-2.728,2.794-5.509,4.321-8.195.277-.486.444-.509.855-.189,1.583,1.224,3.169,2.441,4.778,3.626a72.523,72.523,0,0,0,6.165,4.167c-1.569,1.824-3.116,3.616-4.653,5.411-1.58,1.841-3.149,3.688-4.6,5.633a1.3,1.3,0,0,1-.868.591c-4.141.672-8.276,1.367-12.532,2.079C345.9,126.122,347.933,121.71,350.2,117.414Zm3.45,15.143c-.157.205-.339.16-.522.111-2.147-.552-4.321-.96-6.5-1.371-.039-.01-.069-.079-.108-.124,3.1-.679,6.24-1.064,9.49-1.628C355.185,130.6,354.415,131.575,353.654,132.557Zm1.325.111a21.552,21.552,0,0,1,1.909-2.47c.333-.369.476-.326.725.058.336.516.734.986,1.178,1.573Zm11.513-8.283c-2.036,2.252-4.239,4.344-6.308,6.563-.323.349-.529.339-.78-.016-.033-.046-.069-.088-.1-.137-.493-.715-1.42-1.384-1.368-2.144.046-.7.914-1.351,1.433-2.014,2.291-2.931,4.82-5.656,7.212-8.5a3.167,3.167,0,0,1,2.066-1.149c1.965-.3,3.916-.685,6-1.057C371.731,118.687,369.088,121.514,366.493,124.385Zm9.053-10c-.01.15.036.31-.232.356-2.379.414-4.758.845-7.2,1.282a2.205,2.205,0,0,1,.043-.3c.316-.891.16-2.128.884-2.64.675-.48,1.785-.359,2.705-.486,1.306-.179,2.611-.346,3.965-.522C375.66,112.879,375.608,113.632,375.546,114.386Zm1.4-16.9q-.578,6.427-1.07,12.861c-.039.486-.147.653-.653.715-1.952.242-3.89.545-5.914.839,2.337-7.046,5.489-13.661,8.094-20.495l.205.059C377.38,93.474,377.122,95.478,376.943,97.488Z" transform="translate(-342.205 -86.846)" fill="#fff"/>
          <path id="Path_84" data-name="Path 84" d="M358.336,130.341c-2.888,5.261-5.6,10.613-8.269,15.984a1.016,1.016,0,0,1-.167.2c.111-2.092,5.691-19.173,7.392-22.55.4,1.981.679,3.848,1.191,5.662A.877.877,0,0,1,358.336,130.341Z" transform="translate(-346.753 -108.787)" fill="#b71c1c"/>
          <path id="Path_85" data-name="Path 85" d="M373.7,121.987c-.679.539-1.358,1.077-2.021,1.632-.378.317-.5.17-.581-.241q-.577-2.977-1.175-5.949a.8.8,0,0,1,.454-.96c.581-.333,1.133-.718,1.788-1.139a44.011,44.011,0,0,0,1.717,6.089A.437.437,0,0,1,373.7,121.987Z" transform="translate(-358.568 -103.68)" fill="#b71c1c"/>
          <path id="Path_86" data-name="Path 86" d="M387.409,140.489c-.274.91-.506,1.837-.787,2.882a84.137,84.137,0,0,1-7.7-5.235c-1.093-.8-2.115-1.69-3.208-2.487-.456-.333-.349-.525,0-.8.617-.483,1.241-.963,1.838-1.472a.519.519,0,0,1,.773-.039c1.335.9,2.555,1.949,3.812,2.947a51.936,51.936,0,0,0,5.045,3.672C387.409,140.095,387.494,140.2,387.409,140.489Z" transform="translate(-361.832 -114.232)" fill="#b71c1c"/>
          <path id="Path_87" data-name="Path 87" d="M377.25,194.1l-3.812.839a21.554,21.554,0,0,1,1.909-2.47c.333-.369.476-.326.725.058C376.407,193.043,376.806,193.513,377.25,194.1Z" transform="translate(-360.663 -149.118)" fill="#5e4e26"/>
          <path id="Path_88" data-name="Path 88" d="M362.262,191.241c-.832,1.057-1.6,2.03-2.363,3.012-.157.205-.339.16-.522.111-2.147-.552-4.321-.96-6.5-1.371-.039-.01-.069-.079-.108-.124C355.869,192.191,359.012,191.805,362.262,191.241Z" transform="translate(-348.45 -148.542)" fill="#b71c1c"/>
          <path id="Path_89" data-name="Path 89" d="M368.438,148.571c-1.569,1.824-3.116,3.616-4.653,5.411-1.58,1.841-3.149,3.688-4.6,5.633a1.3,1.3,0,0,1-.868.591c-4.141.672-8.276,1.367-12.532,2.079,2.235-4.416,4.265-8.828,6.536-13.123,1.446-2.728,2.794-5.509,4.321-8.195.277-.486.444-.509.855-.189,1.583,1.224,3.169,2.441,4.778,3.626A72.521,72.521,0,0,0,368.438,148.571Z" transform="translate(-344.319 -118.593)" fill="#771010"/>
          <path id="Path_90" data-name="Path 90" d="M397.376,157.953c-2.918,2.758-5.561,5.584-8.156,8.456-2.036,2.252-4.239,4.344-6.308,6.563-.323.349-.529.339-.78-.016-.033-.046-.069-.088-.1-.137-.493-.715-1.42-1.384-1.368-2.144.046-.7.914-1.351,1.433-2.014,2.291-2.931,4.82-5.656,7.213-8.5a3.167,3.167,0,0,1,2.065-1.149C393.339,158.71,395.29,158.325,397.376,157.953Z" transform="translate(-364.932 -128.87)" fill="#b71c1c"/>
          <path id="Path_91" data-name="Path 91" d="M413.158,148.538c-.056.8-.108,1.553-.17,2.307-.01.15.036.31-.232.356-2.379.414-4.758.845-7.2,1.282a2.2,2.2,0,0,1,.043-.3c.316-.891.16-2.128.884-2.64.675-.48,1.785-.359,2.705-.486C410.5,148.881,411.8,148.714,413.158,148.538Z" transform="translate(-379.648 -123.305)" fill="#771010"/>
          <path id="Path_92" data-name="Path 92" d="M416.764,98.058c-.225,2.007-.483,4.011-.662,6.021q-.578,6.427-1.07,12.861c-.039.486-.147.653-.653.715-1.952.242-3.89.545-5.913.839,2.337-7.046,5.489-13.661,8.094-20.495Z" transform="translate(-381.364 -93.437)" fill="#b71c1c"/>
          <path id="Path_93" data-name="Path 93" d="M395.879,93.761c-1.308,1.119-2.617,2.183-3.861,3.316q-3.593,3.265-7.124,6.6c-1.573,1.492-3.231,2.885-4.863,4.311-.359.313-.5.166-.62-.229-.519-1.723-1.025-3.45-1.416-5.212-.137-.614.284-.672.6-.823q5.5-2.634,11.027-5.235c1.854-.872,3.73-1.7,5.6-2.546A.988.988,0,0,1,395.879,93.761Z" transform="translate(-363.341 -90.926)" fill="#b71c1c"/>
          <path id="Path_94" data-name="Path 94" d="M401.815,92.4c-2.917,7.434-6.194,14.578-8.782,22-.209.6-.353.646-.881.284-2.885-1.968-5.5-4.278-8.358-6.4C389.978,103.2,395.321,97.215,401.815,92.4Z" transform="translate(-366.784 -90.127)" fill="#771010"/>
        </g>
        <g id="Group_180" data-name="Group 180" transform="translate(32.663)">
          <path id="Path_95" data-name="Path 95" d="M300.495,91.924C296.386,81,292.539,69.98,288.051,59.2c-.917-2.2-1.756-4.438-2.859-6.556-.212-.4-.421-.829-1.008-.7a1.969,1.969,0,0,0-1.182.372c-2.134,1.475-4.523,2.5-6.749,3.812-1.4.826-2.8,1.681-4.256,2.4a1.405,1.405,0,0,0-.943,1.116,126.217,126.217,0,0,1-2.95,13.645c-2.36,8.883-4.158,17.907-6.72,26.741a2.949,2.949,0,0,0-.2,1.652,32.852,32.852,0,0,1,.836,4.729c.568,4.53,1.149,9.056,1.6,13.6a4.522,4.522,0,0,0,2.422,3.743c2.248,1.335,4.513,2.643,6.765,3.975a3.544,3.544,0,0,0,3.508.375,116.378,116.378,0,0,0,14.095-5.891,1.176,1.176,0,0,0,.526-.5,41.408,41.408,0,0,0,2.748-6.318c2.259-6.367,4.774-12.643,6.834-19.085A6.279,6.279,0,0,0,300.495,91.924Zm-.956.659c-1.854-2.229-4.017-4.177-5.9-6.373a66.945,66.945,0,0,0-6.625-6.507,1.52,1.52,0,0,1-.581-1.3,106.492,106.492,0,0,0-.411-12.822c-.31-3.564-.676-7.121-1.038-10.917C290.492,67.193,294.826,79.94,299.538,92.582ZM286.909,81.014c4.634,4.076,8.436,8.632,12.528,13.126a41.166,41.166,0,0,1-6.527.875,1.454,1.454,0,0,1-1.74-1.129A118.731,118.731,0,0,1,286.909,81.014Zm3.9,16.931c-1.191,3.887-2.833,7.624-3.809,11.575-.754,3.051-1.844,5.988-2.957,9.184-1-4.21-2.4-8.061-3.426-12.016a182.9,182.9,0,0,0-5.829-18.181c-.1-.261-.173-.532-.248-.8-.206-.718-.787-1.677-.519-2.1.389-.62,1.371-.885,2.128-1.243,2.4-1.146,4.83-2.242,7.153-3.548,2.066-1.158,2.1-1.162,2.748,1.077a102.076,102.076,0,0,0,4.513,13.126A3.8,3.8,0,0,1,290.806,97.945ZM272.883,59.416c.068-.382.914-.63,1.413-.933q3.059-1.865,6.253-3.492c1.093-.558,2.111-1.243,3.234-1.919.721,8.279,1.88,16.409,1.593,24.734a6.726,6.726,0,0,1-1.057-1.527c-3.237-5.134-6.638-10.163-10.12-15.129-.081-.118-.176-.222-.261-.336C273.581,60.323,272.794,59.928,272.883,59.416Zm11.882,19.519c-3.26,1.612-6.423,3.365-9.758,4.765a2.563,2.563,0,0,0-.3.147c-.868.5-1.1.356-1.139-.721-.121-3.522-.15-7.043-.414-10.561-.294-3.933-.76-7.855-.744-11.876C276.825,66.566,280.832,72.721,284.765,78.935Zm-13.38-14.683c.669,6.469,1.09,12.933,1.139,19.421a2.272,2.272,0,0,1-.444,1.4q-4.386,6.364-8.743,12.747a2.137,2.137,0,0,1-.245.248Q267.248,81.116,271.385,64.252Zm-6.475,54.967-.313-.039q-.5-4.234-1-8.469c-.343-2.96-.692-5.92-1.263-8.847a.956.956,0,0,1,.081-.793c2.892-4.5,6.116-8.763,9.184-13.188C268.816,98.215,266.9,108.727,264.91,119.219Zm10.215,7.976c-.261.206-.486.346-.825.15-2.8-1.622-5.662-3.123-8.345-4.938a1.221,1.221,0,0,1-.584-1.638c1.69-5.257,2.3-10.746,3.358-16.141.735-3.747,1.831-7.4,2.653-11.125.44-2,.92-3.992,1.39-5.985a1.472,1.472,0,0,1,.33-.8c1.789,5.369,3.906,10.58,5.333,16.007,1.488,5.646,3.335,11.187,4.784,16.843a.551.551,0,0,1-.173.646C280.5,122.655,277.892,125.012,275.125,127.2Zm2.963-.973a60.413,60.413,0,0,0,4.68-4.354,2.347,2.347,0,0,1,2.983-.64,22.746,22.746,0,0,0,2.839.77A87.579,87.579,0,0,1,278.088,126.222ZM296.256,105.4c-1.538,4.246-3.13,8.469-4.729,12.692-.336.891-.832,1.723-1.178,2.607-.144.369-.32.375-.623.343a26.056,26.056,0,0,1-4.6-1.038c-.515-.153-.238-.483-.15-.737.888-2.657,1.958-5.257,2.627-7.979,1.237-5.052,3.355-9.817,4.709-14.823.072-.268.166-.444.5-.444a34.354,34.354,0,0,0,7-.848C298.6,98.675,297.47,102.05,296.256,105.4Z" transform="translate(-261.127 -51.917)" fill="#fff"/>
          <path id="Path_96" data-name="Path 96" d="M275.363,101.5a2.272,2.272,0,0,1-.444,1.4q-4.386,6.364-8.743,12.747a2.138,2.138,0,0,1-.245.248q4.156-16.952,8.292-33.816C274.893,88.544,275.314,95.008,275.363,101.5Z" transform="translate(-263.967 -69.74)" fill="#771010"/>
          <path id="Path_97" data-name="Path 97" d="M273.278,139.851c-2.784,10.332-4.7,20.844-6.69,31.336l-.313-.039q-.5-4.234-1-8.469c-.343-2.96-.692-5.92-1.263-8.847a.956.956,0,0,1,.081-.793C266.986,148.542,270.21,144.276,273.278,139.851Z" transform="translate(-262.805 -103.885)" fill="#b71c1c"/>
          <path id="Path_98" data-name="Path 98" d="M313.1,221.753a87.577,87.577,0,0,1-10.5,4.223,60.411,60.411,0,0,0,4.68-4.354,2.347,2.347,0,0,1,2.983-.64A22.744,22.744,0,0,0,313.1,221.753Z" transform="translate(-285.634 -151.671)" fill="#771010"/>
          <path id="Path_99" data-name="Path 99" d="M289.018,170.506c-2.542,2.438-5.153,4.794-7.921,6.977-.261.206-.486.346-.825.15-2.8-1.622-5.662-3.123-8.345-4.938a1.221,1.221,0,0,1-.584-1.639c1.69-5.257,2.3-10.746,3.358-16.141.735-3.747,1.831-7.4,2.653-11.125.441-2,.92-3.992,1.39-5.985a1.472,1.472,0,0,1,.33-.8c1.789,5.369,3.906,10.58,5.333,16.007,1.488,5.646,3.335,11.187,4.784,16.843A.551.551,0,0,1,289.018,170.506Z" transform="translate(-267.1 -102.206)" fill="#b71c1c"/>
          <path id="Path_100" data-name="Path 100" d="M334.06,157.66c-1.217,3.508-2.346,6.882-3.56,10.228-1.537,4.246-3.13,8.469-4.729,12.692-.336.891-.832,1.723-1.178,2.607-.144.369-.32.375-.623.343a26.056,26.056,0,0,1-4.6-1.038c-.515-.153-.238-.483-.15-.737.888-2.657,1.958-5.257,2.627-7.979,1.237-5.052,3.355-9.817,4.709-14.823.072-.267.166-.444.5-.444A34.356,34.356,0,0,0,334.06,157.66Z" transform="translate(-295.371 -114.41)" fill="#771010"/>
          <path id="Path_101" data-name="Path 101" d="M309.333,138.594c-1.191,3.887-2.833,7.624-3.809,11.575-.754,3.051-1.844,5.988-2.957,9.184-1-4.21-2.4-8.061-3.426-12.016a182.909,182.909,0,0,0-5.829-18.181c-.1-.261-.173-.532-.248-.8-.206-.718-.787-1.677-.519-2.1.389-.62,1.371-.885,2.128-1.243,2.4-1.146,4.83-2.242,7.153-3.548,2.066-1.158,2.1-1.162,2.748,1.077a102.076,102.076,0,0,0,4.513,13.126A3.8,3.8,0,0,1,309.333,138.594Z" transform="translate(-279.654 -92.567)" fill="#b71c1c"/>
          <path id="Path_102" data-name="Path 102" d="M336.69,136.181a41.17,41.17,0,0,1-6.527.875,1.454,1.454,0,0,1-1.74-1.129,118.731,118.731,0,0,1-4.262-12.871C328.8,127.131,332.6,131.687,336.69,136.181Z" transform="translate(-298.38 -93.959)" fill="#b71c1c"/>
          <path id="Path_103" data-name="Path 103" d="M334.009,96.556c-1.854-2.229-4.017-4.177-5.9-6.373a66.947,66.947,0,0,0-6.625-6.507,1.52,1.52,0,0,1-.581-1.3,106.492,106.492,0,0,0-.411-12.822c-.31-3.564-.676-7.121-1.038-10.917C324.963,71.166,329.3,83.913,334.009,96.556Z" transform="translate(-295.598 -55.891)" fill="#771010"/>
          <path id="Path_104" data-name="Path 104" d="M302.352,79.474a6.727,6.727,0,0,1-1.057-1.527c-3.237-5.134-6.638-10.163-10.12-15.129-.081-.118-.176-.222-.261-.336-.356-.49-1.142-.885-1.054-1.4.068-.382.914-.63,1.413-.933q3.059-1.865,6.253-3.492c1.093-.558,2.111-1.243,3.234-1.919C301.48,63.019,302.639,71.149,302.352,79.474Z" transform="translate(-278.103 -53.586)" fill="#b71c1c"/>
          <path id="Path_105" data-name="Path 105" d="M301.062,91.609c-3.26,1.612-6.423,3.365-9.758,4.765a2.561,2.561,0,0,0-.3.147c-.868.5-1.1.356-1.139-.721-.121-3.522-.15-7.043-.414-10.561-.294-3.933-.76-7.855-.744-11.876C293.122,79.24,297.129,85.4,301.062,91.609Z" transform="translate(-277.424 -64.591)" fill="#b71c1c"/>
        </g>
        <path id="Path_106" data-name="Path 106" d="M394.915,125.038c-.085.338-.186.674-.308,1.022-.036.091-.073.187-.109.282a13.724,13.724,0,0,1-.683,1.5c-.039.074-.078.149-.121.228-.164.3-.341.608-.533.913-.052.09-.109.176-.165.261-.062.1-.127.2-.192.3l-.2.3c-.144.21-.3.423-.453.632-.065.089-.134.178-.2.267l-.234.3c-.174.224-.36.447-.546.67-.064.081-.132.157-.2.234-.086.1-.176.2-.267.307s-.167.192-.258.291l-.049.054c-.077.088-.157.176-.239.264-.067.072-.135.145-.206.217s-.131.145-.2.214c-.162.175-.327.343-.5.514-.09.1-.183.186-.281.281s-.205.2-.312.307c-.236.227-.472.454-.72.684-.088.079-.173.163-.261.242-.106.094-.213.192-.319.286-.2.177-.4.354-.6.53-.088.079-.181.158-.274.236l-.458.39c-.1.082-.2.169-.3.25l-.431.355c-.127.1-.254.205-.386.306-.114.093-.228.182-.346.276-.67.528-1.373,1.054-2.1,1.578-.135.1-.271.2-.409.295l-.418.3c-.456.32-.926.639-1.4.958q-.182.126-.377.252-.748.5-1.533,1c-.121.072-.242.149-.359.226q-.512.321-1.037.643c-.155.09-.306.184-.461.274-.138.087-.281.17-.419.253q-1.306.775-2.677,1.54c-.168.093-.331.182-.5.275-.309.172-.627.343-.944.515-.141.075-.283.153-.424.228l-.343.182c-.167.089-.338.178-.51.267s-.368.192-.557.292l-.565.287c-.116.06-.227.117-.342.173l-.5.254c-.111.057-.223.113-.338.17l-.539.264-.585.285c-.171.081-.338.166-.508.246-.35.169-.7.333-1.054.5-.175.085-.346.165-.521.245-.528.245-1.061.485-1.6.728-.179.08-.357.156-.536.24-.2.09-.413.18-.621.27s-.417.184-.625.274-.417.18-.629.27c-.2.087-.4.169-.591.252-1.071.455-2.161.9-3.268,1.336l-.648.256-.034.009c-.212.085-.424.167-.636.248-.165.065-.33.125-.5.19l-.406.152c-.144.058-.288.112-.432.166q-1.009.374-2.03.743c-.228.084-.456.164-.684.244-.638.227-1.28.454-1.93.673l-.578.2c-.274.093-.552.181-.827.274-.232.08-.464.155-.7.231-.75.247-1.508.486-2.27.724,22.414-7.019,39.014-19.376,40.519-29.422Z" transform="translate(-278.381 -95.131)" fill="#353535"/>
        <path id="Path_107" data-name="Path 107" d="M242.48,202.209c-29.081,8.586-54.918,7.836-59.477-1.65l9.127-2.553C196.67,207.335,218.4,209.189,242.48,202.209Z" transform="translate(-182.293 -138.254)" fill="#353535"/>
      </g>
    </g>
    <g id="Group_183" data-name="Group 183" transform="translate(3415.532 -542.955)">
      <g id="Group_176" data-name="Group 176" transform="translate(0.183 0)">
        <path id="Path_36" data-name="Path 36" d="M40.038,280.682v7.543q0,2.4.04,4a.689.689,0,0,0,.529.712l2.359.711.061,1.017q-2.522-.061-5.957-.061-3.517,0-6.344.061l-.1-1.017,2.724-.752a.668.668,0,0,0,.548-.63q.04-1.647.041-4.046v-16.2q0-2.033-.041-3.375a.658.658,0,0,0-.487-.671l-2.725-.793-.061-1.037q2.827.081,6.262.081,3.538,0,6.018-.081l.122,1.037-2.42.691a.643.643,0,0,0-.529.63q-.041,1.463-.04,3.436v6.588H52.155V271.94q0-1.972-.041-3.436a.641.641,0,0,0-.529-.63l-2.378-.691-.061-1.037q2.582.081,6.1.081,3.435,0,6.2-.081l.1,1.037-2.765.793a.689.689,0,0,0-.508.671q-.041,1.341-.041,3.375v16.2q0,2.4.041,4.046a.7.7,0,0,0,.57.63l2.643.752.061,1.017q-2.908-.061-6.425-.061-3.436,0-5.876.061l-.1-1.017,2.439-.711a.687.687,0,0,0,.529-.712q.04-1.606.041-4v-7.543Z" transform="translate(-30.625 -265.678)" fill="#353535"/>
        <path id="Path_37" data-name="Path 37" d="M88.841,285.329l-1.444,3.8q-.427,1.118-.661,1.8a3.523,3.523,0,0,0-.233,1.046.713.713,0,0,0,.183.529,1.23,1.23,0,0,0,.569.285l1.952.569.061,1.058q-2.949-.061-4.8-.061-1.932,0-4.412.061l-.1-1.017,2.177-.651a2.024,2.024,0,0,0,1.138-.742,8.814,8.814,0,0,0,.812-1.576l10.125-24.661,2.2-.325,8.762,24.722a6.858,6.858,0,0,0,.925,1.921,2.351,2.351,0,0,0,1.19.722l1.993.589.06,1.017q-2.744-.061-5.53-.061-3.68,0-7.176.061l-.1-1.017,2.014-.589a1.4,1.4,0,0,0,.589-.306.743.743,0,0,0,.183-.548,3.836,3.836,0,0,0-.2-1.067q-.2-.66-.59-1.739l-1.342-3.822Zm4.391-11.67q-.365,1.059-.793,2.2l-2.786,7.359h6.79l-2.5-7.339Q93.558,274.717,93.232,273.659Z" transform="translate(-48.422 -265.426)" fill="#353535"/>
        <path id="Path_38" data-name="Path 38" d="M133.365,292.19a.664.664,0,0,0,.508.711l2.6.711.061,1.058q-2.744-.061-4.514-.061-1.749,0-4.574.061l-.1-1.017,2.724-.752a.669.669,0,0,0,.548-.63q.041-1.647.041-4.046v-16.2q0-2.033-.041-3.375a.657.657,0,0,0-.488-.671l-2.724-.793-.061-1.037q2.846.081,4.371.081,1.992,0,3.782-.081l13.52,16.935q.813,1.016,1.667,2.155-.041-1.4-.041-2.7V271.94q0-1.972-.04-3.395a.633.633,0,0,0-.529-.61l-2.6-.711-.061-1.077q2.805.081,4.554.081,1.788,0,4.533-.081l.1,1.037-2.765.793a.657.657,0,0,0-.487.671q-.061,1.341-.061,3.375v22.587l-2.338.224L134.93,274.766q-.711-.915-1.647-2.175.04,1.505.041,2.765v12.869Q133.324,290.625,133.365,292.19Z" transform="translate(-65.521 -265.678)" fill="#353535"/>
        <path id="Path_39" data-name="Path 39" d="M186.791,288.225q0,1.22.01,2.216t.03,1.789q.021.529.692.712l2.5.711.061,1.017q-2.826-.061-6.262-.061-3.558,0-6.343.061l-.1-1.017,2.724-.752a.674.674,0,0,0,.549-.63q.02-.814.03-1.82t.011-2.226v-16.2q0-1.017-.011-1.851t-.03-1.524a.658.658,0,0,0-.488-.671l-2.724-.793-.061-1.037q2.826.081,6.262.081,3.538,0,6.343-.081l.1,1.037-2.724.752a.637.637,0,0,0-.529.61c-.013.488-.024,1.014-.03,1.575s-.01,1.17-.01,1.82Z" transform="translate(-83.571 -265.678)" fill="#353535"/>
        <path id="Path_40" data-name="Path 40" d="M212.235,281.516v6.709q0,2.4.041,3.924a.673.673,0,0,0,.529.651l2.988.854.061,1.017q-3.152-.061-6.587-.061-3.517,0-6.344.061l-.1-1.017,2.724-.752a.669.669,0,0,0,.549-.63q.04-1.647.04-4.046v-16.2q0-1.017-.01-1.851c-.006-.555-.017-1.064-.03-1.524a.659.659,0,0,0-.488-.671l-2.725-.793-.06-1.037q2.845.081,5.407.081h5.144q4.941,0,10.247-.081l.142.163-1.261,6.769-1.1.163-1.3-4.94h-7.869v11.264h1.16q1.788,0,3.8-.041a.681.681,0,0,0,.692-.549l.731-2.785,1.342-.061q-.061,2.947-.061,4.411,0,1.424.061,4.351l-1.342.121-.752-2.887a.682.682,0,0,0-.631-.569q-2.053-.041-3.863-.041Z" transform="translate(-92.751 -265.678)" fill="#353535"/>
        <path id="Path_41" data-name="Path 41" d="M239.7,285.329l-1.444,3.8q-.427,1.118-.661,1.8a3.523,3.523,0,0,0-.233,1.046.715.715,0,0,0,.183.529,1.233,1.233,0,0,0,.57.285l1.952.569.061,1.058q-2.949-.061-4.8-.061-1.931,0-4.411.061l-.1-1.017,2.176-.651a2.02,2.02,0,0,0,1.138-.742,8.85,8.85,0,0,0,.813-1.576l10.125-24.661,2.2-.325,8.762,24.722a6.873,6.873,0,0,0,.926,1.921,2.346,2.346,0,0,0,1.19.722l1.992.589.061,1.017q-2.745-.061-5.531-.061-3.68,0-7.176.061l-.1-1.017,2.013-.589a1.4,1.4,0,0,0,.59-.306.745.745,0,0,0,.182-.548,3.831,3.831,0,0,0-.2-1.067q-.2-.66-.59-1.739l-1.342-3.822Zm4.391-11.67q-.365,1.059-.793,2.2l-2.785,7.359h6.79l-2.5-7.339Q244.413,274.717,244.087,273.659Z" transform="translate(-102.849 -265.426)" fill="#353535"/>
        <path id="Path_42" data-name="Path 42" d="M316.322,273.567l-1.119.183-1.546-5.835a11.464,11.464,0,0,0-3.476-.508,8.108,8.108,0,0,0-6.953,3.365,14.583,14.583,0,0,0-2.46,8.814q0,5.815,2.9,9.271a9.92,9.92,0,0,0,8.041,3.456,17.606,17.606,0,0,0,6.039-1.158l.264,1.158a15.961,15.961,0,0,1-9.189,2.765,14.708,14.708,0,0,1-10.745-4,14.09,14.09,0,0,1-4.1-10.552q0-6.973,4.492-11.039t11.732-4.067a33.62,33.62,0,0,1,7.32.834l.121.2Z" transform="translate(-125.638 -265.414)" fill="#b71c1c"/>
        <path id="Path_43" data-name="Path 43" d="M345.919,288.167q0,1.22.01,2.185t.031,1.759c.013.433.169.7.467.793l2.115.691.061,1.017q-2.258-.061-5.591-.061-3.558,0-6.344.061l-.1-1.017,2.724-.752a.674.674,0,0,0,.549-.63q.02-.814.031-1.82t.01-2.226v-16.2q0-1.017-.01-1.851t-.031-1.525a.659.659,0,0,0-.488-.671l-2.725-.793-.06-1.037q2.845.081,5.835.081.63,0,1.565-.031l2.276-.072q1.221-.04,2.044-.06t1.291-.021q5.225,0,7.837,1.749a5.756,5.756,0,0,1,2.612,5.1,7.251,7.251,0,0,1-1.6,4.89,10.077,10.077,0,0,1-4.686,2.856q1.707,2.521,2.632,4.087t1.86,3.08q.936,1.514,1.7,2.673a11.748,11.748,0,0,0,1.433,1.83,8.013,8.013,0,0,0,.7.528,4.57,4.57,0,0,0,.7.387,5.338,5.338,0,0,0,.782.275q.417.112.926.214l.081,1.037a32.593,32.593,0,0,1-4.554.284,10.5,10.5,0,0,1-2.847-.264,4.71,4.71,0,0,1-1.443-.753A8.033,8.033,0,0,1,354,292.051q-.782-1.179-1.658-2.664t-1.8-3.151q-.925-1.666-1.941-3.293-.306-.467-.5-.773a1.816,1.816,0,0,0-.386-.457,1.37,1.37,0,0,0-.407-.224,2.163,2.163,0,0,0-.539-.091l-.853-.02Zm0-8.559q1.078.06,1.952.061a5.5,5.5,0,0,0,4.228-1.454,6.534,6.534,0,0,0,1.342-4.544,6.216,6.216,0,0,0-1.291-4.361,5.278,5.278,0,0,0-4.016-1.372q-.467,0-1.006.041t-1.209.121Z" transform="translate(-141.004 -265.62)" fill="#b71c1c"/>
        <path id="Path_44" data-name="Path 44" d="M391.735,279.219l3.9-7.767q.549-1.016.875-1.728a2.976,2.976,0,0,0,.325-1.158q0-.611-.914-.854l-1.83-.488-.061-1.077q2.256.081,4.737.081,2.257,0,4.453-.081l.1,1.037-2.155.63a2.411,2.411,0,0,0-1.129.722,7.946,7.946,0,0,0-.8,1.21l-6.425,11.893v6.587q0,1.22.01,2.216t.031,1.789q.019.529.711.712l2.278.711.06,1.017q-2.622-.061-6.058-.061-3.538,0-6.14.061l-.1-1.017,2.521-.752a.674.674,0,0,0,.549-.63q.02-.814.041-1.82t.02-2.226v-6.1l-6.608-11.833a13.157,13.157,0,0,0-1.23-1.779,2.725,2.725,0,0,0-1.271-.783l-1.952-.548-.081-1.037q2.013.081,5.713.081,4.065,0,7.7-.081l.1,1.037-2.074.508a1.554,1.554,0,0,0-.691.3.624.624,0,0,0-.224.5,2.554,2.554,0,0,0,.284,1.037,15.256,15.256,0,0,0,.793,1.443Z" transform="translate(-155.083 -265.678)" fill="#b71c1c"/>
        <path id="Path_45" data-name="Path 45" d="M433.318,267.813a7.713,7.713,0,0,0-2.826-.508,5.469,5.469,0,0,0-3.649,1.261,4.382,4.382,0,0,0-1.006,5.307,5.515,5.515,0,0,0,1.3,1.524A9.87,9.87,0,0,0,429,276.6q1.047.529,2.165,1.058,1.24.59,2.5,1.291a10.717,10.717,0,0,1,2.256,1.667,8.186,8.186,0,0,1-.874,12.046,13.246,13.246,0,0,1-8.214,2.359,23.41,23.41,0,0,1-7.258-1.16l-.123-.183,1.078-7.319,1.261-.2,1.524,6.221a7.728,7.728,0,0,0,3.253.671,6.29,6.29,0,0,0,4.158-1.312,4.331,4.331,0,0,0,1.576-3.507,4.219,4.219,0,0,0-.488-2.1,5.466,5.466,0,0,0-1.321-1.546,10.148,10.148,0,0,0-1.891-1.209q-1.058-.529-2.2-1.057-1.241-.61-2.481-1.281a9.84,9.84,0,0,1-2.216-1.626,7.581,7.581,0,0,1-1.586-2.287,7.7,7.7,0,0,1-.61-3.223,7.41,7.41,0,0,1,2.969-6.181,12.23,12.23,0,0,1,7.705-2.3,29.357,29.357,0,0,1,6.852.935l.122.183-1.241,6.547-1.118.183Z" transform="translate(-170.907 -265.414)" fill="#b71c1c"/>
        <path id="Path_46" data-name="Path 46" d="M463.635,294.609q-3.579,0-6.831.061l-.1-1.017,3.253-.895a.675.675,0,0,0,.529-.65q.04-1.525.04-3.924V268.321h-5.855l-1.87,5.408-1.138.183-.529-7.6.143-.163q5,.081,9.576.081h5.672q4.575,0,9.637-.081l.122.163-1.342,7.44-1.138.183-1.321-5.611H466.6v19.863q0,2.4.041,3.924a.678.678,0,0,0,.549.65l3.192.895.061,1.017Q467.069,294.609,463.635,294.609Z" transform="translate(-182.337 -265.678)" fill="#b71c1c"/>
        <path id="Path_47" data-name="Path 47" d="M494.3,285.329l-1.443,3.8q-.427,1.118-.661,1.8a3.528,3.528,0,0,0-.234,1.046.713.713,0,0,0,.183.529,1.231,1.231,0,0,0,.569.285l1.952.569.061,1.058q-2.948-.061-4.8-.061-1.932,0-4.412.061l-.1-1.017,2.175-.651a2.018,2.018,0,0,0,1.138-.742,8.808,8.808,0,0,0,.813-1.576l10.125-24.661,2.2-.325,8.762,24.722a6.859,6.859,0,0,0,.925,1.921,2.351,2.351,0,0,0,1.19.722l1.992.589.061,1.017q-2.744-.061-5.53-.061-3.68,0-7.177.061l-.1-1.017,2.013-.589a1.394,1.394,0,0,0,.589-.306.74.74,0,0,0,.184-.548,3.839,3.839,0,0,0-.2-1.067q-.2-.66-.59-1.739l-1.341-3.822Zm4.391-11.67q-.366,1.059-.793,2.2l-2.786,7.359h6.79l-2.5-7.339Q499.019,274.717,498.694,273.659Z" transform="translate(-194.707 -265.426)" fill="#b71c1c"/>
        <path id="Path_48" data-name="Path 48" d="M543.131,271.94v16.082q0,2.236.041,4.432h7.949l2.786-5.774,1.24-.183-.509,8.03-.142.143q-5.022-.061-9.82-.061h-5.041q-3.03,0-5.612.061l-.1-1.017,2.521-.752a.674.674,0,0,0,.549-.63q.02-.814.031-1.82t.01-2.226v-16.2q0-1.017-.01-1.851t-.031-1.524a.659.659,0,0,0-.488-.671l-2.521-.793-.061-1.037q2.622.081,6.059.081,3.537,0,6.14-.081l.1,1.037-2.521.752a.636.636,0,0,0-.529.61q-.021.732-.031,2.084T543.131,271.94Z" transform="translate(-212.206 -265.678)" fill="#b71c1c"/>
        <path id="Path_49" data-name="Path 49" d="M585.127,267.813a7.71,7.71,0,0,0-2.826-.508,5.469,5.469,0,0,0-3.649,1.261,4.384,4.384,0,0,0-1.006,5.307,5.537,5.537,0,0,0,1.3,1.524,9.9,9.9,0,0,0,1.861,1.2q1.046.529,2.164,1.058,1.24.59,2.5,1.291a10.709,10.709,0,0,1,2.257,1.667,8.186,8.186,0,0,1-.875,12.046,13.245,13.245,0,0,1-8.213,2.359,23.418,23.418,0,0,1-7.258-1.16l-.122-.183,1.078-7.319,1.26-.2,1.525,6.221a7.726,7.726,0,0,0,3.253.671,6.292,6.292,0,0,0,4.158-1.312,4.333,4.333,0,0,0,1.576-3.507,4.22,4.22,0,0,0-.488-2.1,5.459,5.459,0,0,0-1.322-1.546,10.13,10.13,0,0,0-1.891-1.209q-1.057-.529-2.2-1.057-1.241-.61-2.481-1.281a9.863,9.863,0,0,1-2.216-1.626,7.592,7.592,0,0,1-1.585-2.287,7.7,7.7,0,0,1-.61-3.223,7.411,7.411,0,0,1,2.968-6.181,12.234,12.234,0,0,1,7.706-2.3,29.356,29.356,0,0,1,6.852.935l.121.183-1.24,6.547-1.118.183Z" transform="translate(-225.678 -265.414)" fill="#b71c1c"/>
      </g>
      <path id="Path_108" data-name="Path 108" d="M3.346,2.72q-.512,0-.636-.592L.626-10.527l-.018-.158a.428.428,0,0,1,.106-.3A.341.341,0,0,1,.979-11.1h1.59a.518.518,0,0,1,.336.089.489.489,0,0,1,.141.306L4.511-1.821,6.083-7.546q.177-.494.583-.494h.971a.489.489,0,0,1,.371.148.789.789,0,0,1,.194.345l1.59,5.725L11.241-10.7a.432.432,0,0,1,.495-.395h1.59a.323.323,0,0,1,.247.118.428.428,0,0,1,.106.3.57.57,0,0,1-.018.158L11.576,2.127a.7.7,0,0,1-.2.434.606.606,0,0,1-.433.158h-1.2a.572.572,0,0,1-.406-.148.722.722,0,0,1-.212-.345L7.143-4.328,5.165,2.226a.6.6,0,0,1-.618.494Zm15.26,0a.388.388,0,0,1-.3-.138.485.485,0,0,1-.124-.336V-10.823a.477.477,0,0,1,.124-.345.4.4,0,0,1,.3-.128h1.607a.394.394,0,0,1,.309.128.5.5,0,0,1,.115.345v4.5a3.367,3.367,0,0,1,2.844-1.421,3.176,3.176,0,0,1,2.6,1.194A5,5,0,0,1,27.048-3.3V2.246a.508.508,0,0,1-.115.336.381.381,0,0,1-.309.138H25.017a.407.407,0,0,1-.318-.138.486.486,0,0,1-.124-.336V-3.183a2.828,2.828,0,0,0-.5-1.787,1.722,1.722,0,0,0-1.439-.642,1.8,1.8,0,0,0-1.448.651,2.675,2.675,0,0,0-.548,1.777V2.246a.508.508,0,0,1-.115.336.381.381,0,0,1-.309.138Zm17.415.2a4.233,4.233,0,0,1-3.215-1.184,4.866,4.866,0,0,1-1.219-3.277l-.018-.869.018-.869a4.831,4.831,0,0,1,1.236-3.267,4.226,4.226,0,0,1,3.2-1.194A4.2,4.2,0,0,1,39.2-6.549a4.831,4.831,0,0,1,1.236,3.267q.018.237.018.869t-.018.869a4.866,4.866,0,0,1-1.219,3.277A4.209,4.209,0,0,1,36.021,2.917Zm0-1.994A1.711,1.711,0,0,0,37.46.272,3.246,3.246,0,0,0,38-1.643q.018-.2.018-.77T38-3.183a3.251,3.251,0,0,0-.548-1.925,1.707,1.707,0,0,0-1.431-.661,1.725,1.725,0,0,0-1.448.661,3.251,3.251,0,0,0-.548,1.925l-.018.77.018.77A3.2,3.2,0,0,0,34.573.272,1.736,1.736,0,0,0,36.021.923Zm9.485,1.8a.388.388,0,0,1-.3-.138.485.485,0,0,1-.124-.336V-10.823a.477.477,0,0,1,.124-.345.4.4,0,0,1,.3-.128h1.484a.394.394,0,0,1,.309.128.5.5,0,0,1,.115.345V2.246a.508.508,0,0,1-.115.336.381.381,0,0,1-.309.138Zm10.88.2A4.041,4.041,0,0,1,53.25,1.654a5.386,5.386,0,0,1-1.228-3.593l-.018-.494a5.987,5.987,0,0,1,1.157-3.889,3.906,3.906,0,0,1,3.206-1.421,3.914,3.914,0,0,1,3.241,1.421,5.884,5.884,0,0,1,1.139,3.79v.415a.485.485,0,0,1-.124.336.407.407,0,0,1-.318.138H54.443v.158A3.306,3.306,0,0,0,54.981.341a1.6,1.6,0,0,0,1.386.721A1.928,1.928,0,0,0,58.01.153a1.01,1.01,0,0,1,.247-.267.659.659,0,0,1,.3-.049h1.554a.406.406,0,0,1,.274.1A.345.345,0,0,1,60.5.213,1.93,1.93,0,0,1,60,1.328a4.2,4.2,0,0,1-1.439,1.115A4.749,4.749,0,0,1,56.385,2.917Zm1.925-6.238v-.039a3.054,3.054,0,0,0-.521-1.866,1.677,1.677,0,0,0-1.422-.7,1.654,1.654,0,0,0-1.413.7,3.092,3.092,0,0,0-.512,1.866v.039ZM68.767,2.917a4.957,4.957,0,0,1-2.243-.454A3.586,3.586,0,0,1,65.19,1.407,1.889,1.889,0,0,1,64.757.37a.434.434,0,0,1,.115-.316.368.368,0,0,1,.274-.118h1.448a.3.3,0,0,1,.247.158q.088.079.4.375a2.313,2.313,0,0,0,.706.464,2.225,2.225,0,0,0,.874.168A1.975,1.975,0,0,0,69.968.795a1,1,0,0,0,.442-.878.977.977,0,0,0-.2-.642,1.794,1.794,0,0,0-.724-.454,12.856,12.856,0,0,0-1.563-.464A4.5,4.5,0,0,1,65.7-2.729a2.646,2.646,0,0,1-.715-1.935,2.833,2.833,0,0,1,.424-1.49A3.152,3.152,0,0,1,66.674-7.3a4.231,4.231,0,0,1,2-.444,4.65,4.65,0,0,1,2.066.424A3.609,3.609,0,0,1,72.061-6.3a1.821,1.821,0,0,1,.45,1.046.443.443,0,0,1-.115.306.355.355,0,0,1-.274.128H70.8a.341.341,0,0,1-.3-.158q-.124-.1-.4-.365a2.231,2.231,0,0,0-.609-.424,1.9,1.9,0,0,0-.812-.158,1.461,1.461,0,0,0-1.007.316,1.059,1.059,0,0,0-.353.829,1,1,0,0,0,.168.592,1.532,1.532,0,0,0,.68.444,9.791,9.791,0,0,0,1.537.424q3.179.691,3.179,3.1A2.769,2.769,0,0,1,71.8,2.048,4.732,4.732,0,0,1,68.767,2.917ZM80,2.917a3.424,3.424,0,0,1-1.651-.4,3.105,3.105,0,0,1-1.183-1.1A2.807,2.807,0,0,1,76.732-.1,2.717,2.717,0,0,1,77.7-2.275,5.486,5.486,0,0,1,80.371-3.4l2.42-.395v-.415A1.869,1.869,0,0,0,82.4-5.493a1.581,1.581,0,0,0-1.236-.434,1.655,1.655,0,0,0-.936.237,3.032,3.032,0,0,0-.574.484l-.291.326q-.071.237-.265.237H77.721a.368.368,0,0,1-.274-.118.435.435,0,0,1-.115-.316,2.223,2.223,0,0,1,.433-1.115,3.457,3.457,0,0,1,1.281-1.086,4.48,4.48,0,0,1,2.137-.464A3.928,3.928,0,0,1,84.221-6.7a3.915,3.915,0,0,1,.954,2.744v6.2a.508.508,0,0,1-.115.336.381.381,0,0,1-.309.138H83.285a.388.388,0,0,1-.3-.138.486.486,0,0,1-.124-.336v-.77a3.011,3.011,0,0,1-1.1,1.036A3.511,3.511,0,0,1,80,2.917Zm.6-1.9A2.011,2.011,0,0,0,82.19.311a3.039,3.039,0,0,0,.618-2.053v-.395l-1.766.316q-2.031.355-2.031,1.52a1.143,1.143,0,0,0,.468.977A1.836,1.836,0,0,0,80.6,1.022Zm9.926,1.7a.388.388,0,0,1-.3-.138.486.486,0,0,1-.124-.336V-10.823a.477.477,0,0,1,.124-.345.4.4,0,0,1,.3-.128H92.01a.394.394,0,0,1,.309.128.5.5,0,0,1,.115.345V2.246a.508.508,0,0,1-.115.336.381.381,0,0,1-.309.138Zm10.88.2a4.041,4.041,0,0,1-3.135-1.263,5.386,5.386,0,0,1-1.228-3.593l-.018-.494a5.987,5.987,0,0,1,1.157-3.889,3.906,3.906,0,0,1,3.206-1.421,3.914,3.914,0,0,1,3.241,1.421,5.884,5.884,0,0,1,1.139,3.79v.415a.486.486,0,0,1-.124.336.407.407,0,0,1-.318.138H99.464v.158A3.306,3.306,0,0,0,100,.341a1.6,1.6,0,0,0,1.386.721,1.928,1.928,0,0,0,1.643-.908,1.01,1.01,0,0,1,.247-.267.659.659,0,0,1,.3-.049h1.554a.406.406,0,0,1,.274.1.345.345,0,0,1,.115.276,1.93,1.93,0,0,1-.5,1.115,4.2,4.2,0,0,1-1.439,1.115A4.749,4.749,0,0,1,101.407,2.917Zm1.925-6.238v-.039a3.054,3.054,0,0,0-.521-1.866,1.677,1.677,0,0,0-1.422-.7,1.654,1.654,0,0,0-1.413.7,3.092,3.092,0,0,0-.512,1.866v.039ZM117.6,2.72a.388.388,0,0,1-.3-.138.485.485,0,0,1-.124-.336V-10.605a.537.537,0,0,1,.115-.355.381.381,0,0,1,.309-.138h1.625a.407.407,0,0,1,.318.138.513.513,0,0,1,.124.355v5.073h5.157v-5.073a.513.513,0,0,1,.124-.355.388.388,0,0,1,.3-.138h1.643a.381.381,0,0,1,.309.138.537.537,0,0,1,.115.355V2.246a.508.508,0,0,1-.115.336.381.381,0,0,1-.309.138h-1.643a.388.388,0,0,1-.3-.138.485.485,0,0,1-.124-.336V-3.025h-5.157V2.246a.485.485,0,0,1-.124.336.407.407,0,0,1-.318.138Zm18.881.2a4.041,4.041,0,0,1-3.135-1.263,5.386,5.386,0,0,1-1.228-3.593l-.018-.494a5.988,5.988,0,0,1,1.157-3.889,3.906,3.906,0,0,1,3.206-1.421,3.914,3.914,0,0,1,3.241,1.421,5.884,5.884,0,0,1,1.139,3.79v.415a.486.486,0,0,1-.124.336.407.407,0,0,1-.318.138h-5.864v.158A3.306,3.306,0,0,0,135.08.341a1.6,1.6,0,0,0,1.386.721,1.928,1.928,0,0,0,1.643-.908,1.011,1.011,0,0,1,.247-.267.659.659,0,0,1,.3-.049h1.554a.406.406,0,0,1,.274.1.345.345,0,0,1,.115.276,1.93,1.93,0,0,1-.5,1.115,4.2,4.2,0,0,1-1.439,1.115A4.749,4.749,0,0,1,136.484,2.917Zm1.925-6.238v-.039a3.054,3.054,0,0,0-.521-1.866,1.677,1.677,0,0,0-1.422-.7,1.654,1.654,0,0,0-1.413.7,3.092,3.092,0,0,0-.512,1.866v.039Zm9.626,6.238a3.424,3.424,0,0,1-1.651-.4,3.105,3.105,0,0,1-1.183-1.1,2.807,2.807,0,0,1-.433-1.52,2.717,2.717,0,0,1,.971-2.171A5.486,5.486,0,0,1,148.406-3.4l2.42-.395v-.415a1.869,1.869,0,0,0-.389-1.283,1.581,1.581,0,0,0-1.236-.434,1.655,1.655,0,0,0-.936.237,3.032,3.032,0,0,0-.574.484l-.291.326q-.071.237-.265.237h-1.378a.368.368,0,0,1-.274-.118.435.435,0,0,1-.115-.316,2.223,2.223,0,0,1,.433-1.115,3.457,3.457,0,0,1,1.281-1.086,4.48,4.48,0,0,1,2.137-.464A3.928,3.928,0,0,1,152.256-6.7a3.915,3.915,0,0,1,.954,2.744v6.2a.508.508,0,0,1-.115.336.381.381,0,0,1-.309.138H151.32a.388.388,0,0,1-.3-.138.486.486,0,0,1-.124-.336v-.77a3.011,3.011,0,0,1-1.1,1.036A3.511,3.511,0,0,1,148.035,2.917Zm.6-1.9a2.011,2.011,0,0,0,1.59-.711,3.039,3.039,0,0,0,.618-2.053v-.395l-1.766.316q-2.031.355-2.031,1.52a1.143,1.143,0,0,0,.468.977A1.836,1.836,0,0,0,148.636,1.022Zm9.926,1.7a.388.388,0,0,1-.3-.138.485.485,0,0,1-.124-.336V-10.823a.477.477,0,0,1,.124-.345.4.4,0,0,1,.3-.128h1.484a.394.394,0,0,1,.309.128.5.5,0,0,1,.115.345V2.246a.508.508,0,0,1-.115.336.381.381,0,0,1-.309.138Zm7.259-11.943a.388.388,0,0,1-.3-.138A.486.486,0,0,1,165.4-9.7v-1.441a.513.513,0,0,1,.124-.355.388.388,0,0,1,.3-.138h1.625a.407.407,0,0,1,.318.138.513.513,0,0,1,.124.355V-9.7a.467.467,0,0,1-.132.336.415.415,0,0,1-.309.138Zm.071,11.943a.388.388,0,0,1-.3-.138.486.486,0,0,1-.124-.336V-7.072a.477.477,0,0,1,.124-.345.4.4,0,0,1,.3-.128h1.5a.388.388,0,0,1,.3.138.486.486,0,0,1,.124.336V2.246a.486.486,0,0,1-.124.336.388.388,0,0,1-.3.138Zm7.33,0a.388.388,0,0,1-.3-.138.485.485,0,0,1-.124-.336V-7.072a.477.477,0,0,1,.124-.345.4.4,0,0,1,.3-.128h1.466a.394.394,0,0,1,.309.128.5.5,0,0,1,.115.345v.809a3.452,3.452,0,0,1,2.95-1.481,3.137,3.137,0,0,1,2.579,1.184,5.055,5.055,0,0,1,.954,3.257V2.246a.508.508,0,0,1-.115.336.381.381,0,0,1-.309.138h-1.59a.388.388,0,0,1-.3-.138.485.485,0,0,1-.124-.336V-3.183a2.828,2.828,0,0,0-.5-1.787,1.722,1.722,0,0,0-1.439-.642,1.8,1.8,0,0,0-1.448.651,2.675,2.675,0,0,0-.548,1.777V2.246a.508.508,0,0,1-.115.336.381.381,0,0,1-.309.138Zm17.415,4.343a4.9,4.9,0,0,1-2.543-.582,3.621,3.621,0,0,1-1.378-1.333,2.814,2.814,0,0,1-.406-1.283.45.45,0,0,1,.124-.326.4.4,0,0,1,.3-.128H188.3a.434.434,0,0,1,.274.089.631.631,0,0,1,.185.326,2.31,2.31,0,0,0,.583.878,1.7,1.7,0,0,0,1.2.365,2.05,2.05,0,0,0,1.554-.523A2.646,2.646,0,0,0,192.6,2.72V1.377a3.187,3.187,0,0,1-2.7,1.263A3.228,3.228,0,0,1,187.13,1.4a5.9,5.9,0,0,1-1-3.4l-.018-.533.018-.533a5.986,5.986,0,0,1,1.007-3.4,3.194,3.194,0,0,1,2.755-1.283,3.311,3.311,0,0,1,1.643.395A3.411,3.411,0,0,1,192.7-6.282v-.77a.492.492,0,0,1,.132-.355.415.415,0,0,1,.309-.138h1.448a.388.388,0,0,1,.3.138.513.513,0,0,1,.124.355l.018,9.515a4.868,4.868,0,0,1-1.1,3.4A4.245,4.245,0,0,1,190.636,7.063ZM190.566.548a1.688,1.688,0,0,0,1.484-.711A3.272,3.272,0,0,0,192.6-1.9q.018-.158.018-.632t-.018-.632a3.272,3.272,0,0,0-.548-1.737,1.688,1.688,0,0,0-1.484-.711q-1.908,0-2.014,2.606l-.018.474Q188.535.548,190.566.548Zm21.106,2.369A4.976,4.976,0,0,1,207.9,1.525a5.8,5.8,0,0,1-1.422-3.958q-.018-.533-.018-1.737,0-1.224.018-1.777a5.8,5.8,0,0,1,1.431-3.938,4.944,4.944,0,0,1,3.762-1.411,5.889,5.889,0,0,1,2.738.6,4.5,4.5,0,0,1,1.81,1.648A4.635,4.635,0,0,1,216.9-6.7v.039a.352.352,0,0,1-.115.267.364.364,0,0,1-.256.109h-1.713a.425.425,0,0,1-.318-.109.869.869,0,0,1-.177-.385A2.858,2.858,0,0,0,213.4-8.5a2.761,2.761,0,0,0-1.731-.5q-2.526,0-2.632,3.159-.018.533-.018,1.638t.018,1.678q.106,3.159,2.632,3.159a2.769,2.769,0,0,0,1.722-.5,2.834,2.834,0,0,0,.927-1.727.869.869,0,0,1,.177-.385.425.425,0,0,1,.318-.109h1.713a.368.368,0,0,1,.274.118.354.354,0,0,1,.1.3,4.635,4.635,0,0,1-.68,2.349,4.5,4.5,0,0,1-1.81,1.648A5.889,5.889,0,0,1,211.672,2.917Zm10.191-.2a.388.388,0,0,1-.3-.138.486.486,0,0,1-.124-.336v-9.3a.513.513,0,0,1,.124-.355.388.388,0,0,1,.3-.138h1.448a.407.407,0,0,1,.318.138.513.513,0,0,1,.124.355v.809a2.886,2.886,0,0,1,2.543-1.3h.742a.394.394,0,0,1,.309.128.5.5,0,0,1,.115.345v1.441a.508.508,0,0,1-.115.336.381.381,0,0,1-.309.138h-1.4a1.665,1.665,0,0,0-1.307.533,2.112,2.112,0,0,0-.477,1.461V2.246a.485.485,0,0,1-.124.336.388.388,0,0,1-.3.138ZM233.149,6.47a.35.35,0,0,1-.256-.118.385.385,0,0,1-.115-.276.87.87,0,0,1,.071-.316l1.4-3.652-3.391-8.943a.816.816,0,0,1-.071-.276.555.555,0,0,1,.124-.306.33.33,0,0,1,.265-.128h1.466a.485.485,0,0,1,.459.375l2.349,6.436,2.384-6.436a.546.546,0,0,1,.495-.375h1.431a.341.341,0,0,1,.265.118.4.4,0,0,1,.106.276.87.87,0,0,1-.071.316l-5,12.93a.5.5,0,0,1-.495.375Zm14.359-3.553a4.957,4.957,0,0,1-2.243-.454,3.586,3.586,0,0,1-1.334-1.056A1.889,1.889,0,0,1,243.5.37a.434.434,0,0,1,.115-.316.368.368,0,0,1,.274-.118h1.448a.3.3,0,0,1,.247.158q.088.079.4.375a2.313,2.313,0,0,0,.707.464,2.225,2.225,0,0,0,.874.168A1.975,1.975,0,0,0,248.71.795a1,1,0,0,0,.442-.878.977.977,0,0,0-.2-.642,1.793,1.793,0,0,0-.724-.454,12.855,12.855,0,0,0-1.563-.464,4.5,4.5,0,0,1-2.217-1.086,2.646,2.646,0,0,1-.715-1.935,2.833,2.833,0,0,1,.424-1.49A3.152,3.152,0,0,1,245.416-7.3a4.231,4.231,0,0,1,2-.444,4.65,4.65,0,0,1,2.067.424A3.609,3.609,0,0,1,250.8-6.3a1.821,1.821,0,0,1,.45,1.046.443.443,0,0,1-.115.306.355.355,0,0,1-.274.128H249.54a.341.341,0,0,1-.3-.158q-.124-.1-.4-.365a2.231,2.231,0,0,0-.609-.424,1.9,1.9,0,0,0-.812-.158,1.461,1.461,0,0,0-1.007.316,1.059,1.059,0,0,0-.353.829,1,1,0,0,0,.168.592,1.532,1.532,0,0,0,.68.444,9.792,9.792,0,0,0,1.537.424q3.179.691,3.179,3.1a2.769,2.769,0,0,1-1.086,2.27A4.732,4.732,0,0,1,247.509,2.917Zm12.7-.2a3.028,3.028,0,0,1-2.42-.938,4.1,4.1,0,0,1-.812-2.754V-5.433h-1.4a.388.388,0,0,1-.3-.138.485.485,0,0,1-.124-.336V-7.072a.485.485,0,0,1,.124-.336.388.388,0,0,1,.3-.138h1.4v-3.277a.477.477,0,0,1,.124-.345.4.4,0,0,1,.3-.128h1.466a.394.394,0,0,1,.309.128.5.5,0,0,1,.115.345v3.277H261.5a.388.388,0,0,1,.3.138.486.486,0,0,1,.124.336v1.165a.486.486,0,0,1-.124.336.388.388,0,0,1-.3.138H259.29v4.244a2.5,2.5,0,0,0,.265,1.283.935.935,0,0,0,.865.434h1.236a.394.394,0,0,1,.309.128A.5.5,0,0,1,262.08,1V2.246a.508.508,0,0,1-.115.336.381.381,0,0,1-.309.138Zm8.76.2a3.424,3.424,0,0,1-1.651-.4,3.105,3.105,0,0,1-1.183-1.1A2.807,2.807,0,0,1,265.7-.1a2.718,2.718,0,0,1,.971-2.171A5.486,5.486,0,0,1,269.34-3.4l2.42-.395v-.415a1.869,1.869,0,0,0-.389-1.283,1.581,1.581,0,0,0-1.236-.434,1.655,1.655,0,0,0-.936.237,3.032,3.032,0,0,0-.574.484l-.291.326q-.071.237-.265.237H266.69a.368.368,0,0,1-.274-.118.435.435,0,0,1-.115-.316,2.223,2.223,0,0,1,.433-1.115,3.457,3.457,0,0,1,1.281-1.086,4.48,4.48,0,0,1,2.137-.464A3.928,3.928,0,0,1,273.19-6.7a3.915,3.915,0,0,1,.954,2.744v6.2a.508.508,0,0,1-.115.336.381.381,0,0,1-.309.138h-1.466a.388.388,0,0,1-.3-.138.486.486,0,0,1-.124-.336v-.77a3.01,3.01,0,0,1-1.1,1.036A3.511,3.511,0,0,1,268.969,2.917Zm.6-1.9a2.011,2.011,0,0,0,1.59-.711,3.039,3.039,0,0,0,.618-2.053v-.395l-1.766.316q-2.031.355-2.031,1.52a1.143,1.143,0,0,0,.468.977A1.836,1.836,0,0,0,269.569,1.022Zm9.926,1.7a.388.388,0,0,1-.3-.138.485.485,0,0,1-.124-.336V-10.823a.477.477,0,0,1,.124-.345.4.4,0,0,1,.3-.128h1.484a.394.394,0,0,1,.309.128.5.5,0,0,1,.115.345V2.246a.508.508,0,0,1-.115.336.381.381,0,0,1-.309.138Zm10.4.2a4.957,4.957,0,0,1-2.243-.454,3.586,3.586,0,0,1-1.333-1.056A1.89,1.89,0,0,1,285.889.37.434.434,0,0,1,286,.055a.368.368,0,0,1,.274-.118h1.448a.3.3,0,0,1,.247.158q.088.079.4.375a2.313,2.313,0,0,0,.707.464,2.225,2.225,0,0,0,.874.168A1.975,1.975,0,0,0,291.1.795a1,1,0,0,0,.442-.878.977.977,0,0,0-.2-.642,1.794,1.794,0,0,0-.724-.454,12.855,12.855,0,0,0-1.563-.464,4.5,4.5,0,0,1-2.217-1.086,2.646,2.646,0,0,1-.715-1.935,2.832,2.832,0,0,1,.424-1.49A3.152,3.152,0,0,1,287.805-7.3a4.231,4.231,0,0,1,2-.444,4.65,4.65,0,0,1,2.066.424A3.609,3.609,0,0,1,293.192-6.3a1.821,1.821,0,0,1,.45,1.046.443.443,0,0,1-.115.306.355.355,0,0,1-.274.128H291.93a.341.341,0,0,1-.3-.158q-.124-.1-.4-.365a2.231,2.231,0,0,0-.609-.424,1.9,1.9,0,0,0-.812-.158,1.461,1.461,0,0,0-1.007.316,1.059,1.059,0,0,0-.353.829,1,1,0,0,0,.168.592,1.533,1.533,0,0,0,.68.444,9.791,9.791,0,0,0,1.537.424q3.179.691,3.179,3.1a2.769,2.769,0,0,1-1.086,2.27A4.732,4.732,0,0,1,289.9,2.917Z" transform="translate(-0.425 54.349)" fill="#9f9f9f"/>
    </g>
  </g>
</svg>
