<svg xmlns="http://www.w3.org/2000/svg" width="18" height="18" viewBox="0 0 21.531 21.554">
  <g id="necklace" transform="translate(-32.242 -32)">
    <path id="Path_121" data-name="Path 121" d="M50.755,143.172a7.866,7.866,0,0,1-6.593,5.357v.841h.385a.385.385,0,0,1,.272.113l1.155,1.155a.385.385,0,0,1,.113.272v3.849a.385.385,0,0,1-.113.272l-1.155,1.155a.385.385,0,0,1-.272.113H41.468a.385.385,0,0,1-.272-.113l-1.155-1.155a.385.385,0,0,1-.113-.272V150.91a.385.385,0,0,1,.113-.272l1.155-1.155a.385.385,0,0,1,.272-.113h.385v-.841a7.866,7.866,0,0,1-6.593-5.357,18.668,18.668,0,0,1-3.018,1.818,25.274,25.274,0,0,0,1.509,7.145,12.892,12.892,0,0,0,3.231,5,9.225,9.225,0,0,0,12.05,0,12.9,12.9,0,0,0,3.232-5,25.276,25.276,0,0,0,1.509-7.145A18.666,18.666,0,0,1,50.755,143.172Z" transform="translate(0 -105.823)" fill="#b71c1c"/>
    <path id="Path_122" data-name="Path 122" d="M241.54,320.544,241,320h-.451l-.544.544v1.221l.544.544H241l.544-.544Z" transform="translate(-197.762 -274.144)" fill="#b71c1c"/>
    <path id="Path_123" data-name="Path 123" d="M240.577,384l-.577.77h1.54l-.577-.77Z" transform="translate(-197.762 -335.065)" fill="#b71c1c"/>
    <path id="Path_124" data-name="Path 124" d="M248.385,216a.385.385,0,0,0-.385.385v2.309h.77v-2.309A.385.385,0,0,0,248.385,216Z" transform="translate(-205.377 -175.147)" fill="#b71c1c"/>
    <path id="Path_125" data-name="Path 125" d="M208,320v2.309l.77-.577v-1.155Z" transform="translate(-167.302 -274.144)" fill="#b71c1c"/>
    <path id="Path_126" data-name="Path 126" d="M213.394,370.861l-.3-.3-.917.688.527.527Z" transform="translate(-171.28 -322.274)" fill="#b71c1c"/>
    <path id="Path_127" data-name="Path 127" d="M212.706,292.179l-.527.527.917.688.3-.3Z" transform="translate(-171.28 -247.661)" fill="#b71c1c"/>
    <path id="Path_128" data-name="Path 128" d="M114.244,127.386v-.691c0-.03,0-.06,0-.089a6.382,6.382,0,0,1-3.279-1.526,7.115,7.115,0,0,1-2.042-3.3q-.3.263-.635.535A7.164,7.164,0,0,0,114.244,127.386Z" transform="translate(-72.391 -85.457)" fill="#b71c1c"/>
    <path id="Path_129" data-name="Path 129" d="M240.577,288.77h.385l.577-.77H240Z" transform="translate(-197.762 -243.683)" fill="#b71c1c"/>
    <path id="Path_130" data-name="Path 130" d="M146.369,64.8c-.175-.168-.337-.331-.484-.485a16.428,16.428,0,0,1-1.5-1.781,3.025,3.025,0,0,1-1.024.486,11.491,11.491,0,0,1-5.664,0,3.013,3.013,0,0,1-1.024-.486,16.424,16.424,0,0,1-1.5,1.781c-.148.154-.31.316-.484.485a5.835,5.835,0,0,0,5.023,4.684,1.153,1.153,0,0,1,1.626,0A5.836,5.836,0,0,0,146.369,64.8Z" transform="translate(-97.526 -29.063)" fill="#b71c1c"/>
    <path id="Path_131" data-name="Path 131" d="M285.877,122.311q-.336-.271-.635-.535a7.122,7.122,0,0,1-2.036,3.3,6.381,6.381,0,0,1-3.284,1.531c0,.03,0,.059,0,.09v.691A7.164,7.164,0,0,0,285.877,122.311Z" transform="translate(-235.763 -85.457)" fill="#b71c1c"/>
    <path id="Path_132" data-name="Path 132" d="M288.77,320l-.77.577v1.155l.77.577Z" transform="translate(-243.453 -274.144)" fill="#b71c1c"/>
    <path id="Path_133" data-name="Path 133" d="M274.563,370.861l.688.918.527-.527-.918-.688Z" transform="translate(-230.662 -322.274)" fill="#b71c1c"/>
    <ellipse id="Ellipse_14" data-name="Ellipse 14" cx="3.463" cy="0.77" rx="3.463" ry="0.77" transform="translate(39.545 32)" fill="#b71c1c"/>
    <path id="Path_134" data-name="Path 134" d="M274.563,293.1l.3.3.918-.688-.527-.527Z" transform="translate(-230.662 -247.661)" fill="#b71c1c"/>
  </g>
</svg>
