<svg xmlns="http://www.w3.org/2000/svg" width="21.359" height="19.576" viewBox="0 0 21.359 19.576">
  <path id="shopping-cart" d="M20.481,24.9H3.781l-.248-2.765a.877.877,0,0,0-.874-.8H.877a.877.877,0,0,0,0,1.754h.98l1.009,11.24A3.375,3.375,0,0,0,4.13,36.619a2.659,2.659,0,1,0,4.595.731h4.8a2.659,2.659,0,1,0,2.5-1.754H6.23a1.629,1.629,0,0,1-1.5-.988l14.019-.824a.877.877,0,0,0,.8-.663l1.782-7.129A.878.878,0,0,0,20.481,24.9ZM6.224,39.16a.905.905,0,1,1,.905-.905A.906.906,0,0,1,6.224,39.16Zm9.8,0a.905.905,0,1,1,.905-.905A.906.906,0,0,1,16.026,39.16ZM18,32.071,4.5,32.864l-.557-6.208H19.358Z" transform="translate(0 -21.338)" fill="#fff"/>
</svg>
