<svg xmlns="http://www.w3.org/2000/svg" width="51" height="51" viewBox="0 0 51 51">
  <g id="Group_102" data-name="Group 102" transform="translate(0.19)">
    <circle id="Ellipse_6" data-name="Ellipse 6" cx="25.5" cy="25.5" r="25.5" transform="translate(-0.19)" fill="#fff"/>
    <g id="twitter" transform="translate(15.595 17.668)">
      <g id="Group_100" data-name="Group 100">
        <path id="Path_18" data-name="Path 18" d="M19.462,49.872a8.319,8.319,0,0,1-2.3.63A3.967,3.967,0,0,0,18.918,48.3a7.973,7.973,0,0,1-2.53.966,3.99,3.99,0,0,0-6.9,2.728,4.108,4.108,0,0,0,.092.91,11.293,11.293,0,0,1-8.224-4.173A3.991,3.991,0,0,0,2.581,54.06a3.94,3.94,0,0,1-1.8-.491v.044a4.008,4.008,0,0,0,3.2,3.92,3.982,3.982,0,0,1-1.046.131,3.528,3.528,0,0,1-.755-.068A4.028,4.028,0,0,0,5.9,60.375a8.017,8.017,0,0,1-4.947,1.7A7.472,7.472,0,0,1,0,62.022a11.232,11.232,0,0,0,6.121,1.79A11.278,11.278,0,0,0,17.477,52.459c0-.176-.006-.347-.015-.516A7.96,7.96,0,0,0,19.462,49.872Z" transform="translate(0 -48)" fill="#b71c1c"/>
      </g>
    </g>
  </g>
</svg>
