<svg xmlns="http://www.w3.org/2000/svg" width="51" height="51" viewBox="0 0 51 51">
  <g id="Group_261" data-name="Group 261" transform="translate(0.005)">
    <circle id="Ellipse_5" data-name="Ellipse 5" cx="25.5" cy="25.5" r="25.5" transform="translate(-0.005)" fill="#fff"/>
    <g id="whatsapp_1_" data-name="whatsapp (1)" transform="translate(13.995 14)">
      <g id="Group_262" data-name="Group 262">
        <path id="Path_120" data-name="Path 120" d="M11.649,0h-.006A11.639,11.639,0,0,0,2.217,18.472L.766,22.8l4.476-1.431A11.644,11.644,0,1,0,11.649,0Zm6.777,16.446a3.286,3.286,0,0,1-2.286,1.644c-.609.13-1.4.233-4.079-.876a14.589,14.589,0,0,1-5.8-5.121A6.651,6.651,0,0,1,4.88,8.579,3.718,3.718,0,0,1,6.07,5.744a1.692,1.692,0,0,1,1.191-.418c.144,0,.274.007.39.013.342.015.514.035.74.575.281.677.965,2.348,1.047,2.52a.693.693,0,0,1,.049.63A2.013,2.013,0,0,1,9.11,9.6c-.172.2-.335.349-.507.562-.157.185-.335.383-.137.725a10.337,10.337,0,0,0,1.89,2.348,8.562,8.562,0,0,0,2.731,1.684.736.736,0,0,0,.821-.13,14.091,14.091,0,0,0,.91-1.205.65.65,0,0,1,.836-.253c.314.109,1.978.932,2.32,1.1s.568.253.651.4A2.9,2.9,0,0,1,18.425,16.446Z" fill="#b71c1c"/>
      </g>
    </g>
  </g>
</svg>
